/* XPM */
static char *_7b1e52b4f5d4f19ac6e149d0f549e9dX3Xe645wy6rDvEv1[] = {
/* columns rows colors chars-per-pixel */
"128 128 3 1 ",
"  c #8C8D8D",
". c #9098A3",
"X c gray80",
/* pixels */
"     XX...............................XX        XX.....................................X    X.............................X     ",
"      X.XX.............................XXXX      XX....................................X    X............................XX     ",
"       XXXX...............................XXX      XX.................................X     XX...........................X      ",
"           XXX..............................XX      XX..........................XXXXXX      X............................X      ",
"             XX..............................X       XXXXXX....................X            X...........................XX      ",
"               XXX...........................X            XXXXXXXXXXXXXXXXXXXXXX            X.........................XXX       ",
"                XX...........................X                                         XXXX XX.......................X          ",
"                 XX..........................X                                       XX....X X......................XX          ",
"                  XXX.......................XX   XXXXXX                      XXXXXXXXX.....X XX...................XXX    XXXX   ",
"XXXXXXX              XXXXXXXXXX............XX  XXX....XXX                   XX.............X  X..................XX     X....XXX",
"......X                       XX..........XX   X.........XX    XXXXXXXXXXXXXX..............X  XX..............XXX      XX.......",
"......X           XXX          XX........XX    X...........XXXXX..........................XX   XX............XX      XX.........",
"......XX          X.XXXX        XXXXX..XXX     X.........................................XX     X...........XX      XX..........",
".......XXXXXXX    XX...XXX          XXXX       XX....................................XXXX       XX.........XX       X...........",
"..............XXX  XX.....XXX                   X...................................X            XX.......XX        X...........",
"................XX  XXX.....XXXXX               XX.................................X              XX.....X          X...........",
".................X     XX.......XXX               X...........................XXXXX                XX..XX           X...........",
".................X      XX........XX     XXXXXX    XXX.......................XX       XXXXXX        XXXX           XX...........",
".................X       XXXX......X    XX...XXX     X......................XX        X.....XXX                    X............",
".................X XXXXXX    XXX...X    X......XX     X....................XX        XX.......XX                  X.............",
"................X  X.....XX    XX.XX   X........X      X...................X         X.........XX              XXXX.............",
"...............XX  X......XX    XXX    X........X       XX................X          X..........XXX           XX................",
"..............XX   X........XX   X    XX........X         XX.............XX          X.............XX         X.................",
".............XX   X..........X        X.........XX          XXX.......XXX           X...............X        XX.................",
".............X    X..........XX       X..........X             XXXXXXXX            XX................X       X..................",
"............X     X...........XXX     XX..........X                           XXXXX..................X       X..................",
"...........XX    X..............XX     X.........XX            XXXXX       XXXX......................X       X..................",
"..........XX     X...............X      XXXXXXX.XX            XX...XX     X..........................X       X..................",
".........XX     XX...............XX           XXX            XX.....X   XX...........................X       X..................",
"........XX      X.................X           XX  XXXXXX     X......X  XX............................X       XX.................",
"........X      XX.................XX          X  XX.....XX   X......X XX.............................X         XX...............",
".......XX      X...................X             XX......XX  X.....XX X..............................X           XX.............",
"......XX      XX...................X              XX......X  XX....X  X..............................X            XXX...........",
"..XXXXX      X....................XX             XXX......XX  X....X  X.............................X     XXXXXXXX..XXXXXX......",
"XXX         XX...................XX             XX.........X   X...X  X.............................X    XX......XXXX....XXXXX..",
"X           X..................XXX   XX    XXXXXX..........X   X...X XX............................X     X..........XX........XX",
"   XXXXXXX XX............XXXXXXX    X.X    X...............X   XX.XX X.............................X    XX............X.........",
" XXX.....XXX............XX         XX.X    X...............X    XXX  X............................XX   XX..............X........",
"XX......................X        XXX..XX   XXX.............X         X..........................XXX   XX...............XX.....XX",
".......................XX     XXX......X     XX...........XX         X.........................XX    XX.................XX.XXX..",
".......................X     XX........X      XX..........X   XXXXXX X........................X     XX...................X.X....",
"......................XX  XXXX..........X      XX.........X   X....X X.......................XX     X...................XX.X....",
"......................X  XX.............XXX     X........XX   X....X X....................XXXX      XX.................XX..X....",
".....................X  XX................XX    X......XXX    X....X X....................X           X................X...X....",
".....................X  X..................XX   XXXXXXXX      XX...X X....................X            X................X..XX...",
".....................X  X...................X                  XXXXX X....................X            XX...............X...XX..",
".....................X  X...................XX                       X....................X    XXXX     XX..............XX...XX.",
"..................XXX   X....................XX          XXXXX    X  X...................XX    X...XX    X...............XX...X.",
"...............XXXX     X.....................X         X.....XXXXXX X...................X     X....XX   XX...............XX..X.",
"..............XX        X.....XXXXXXXXXXXXXXXXX        XX..........X  X..................X    X......XX   X................X..XX",
"X.............X         XXX..XX                        X...........X   X................XX    X.......X   XX...............XX..X",
"XXX..........X            XXXX                         X...........X   X................X    X.........X   X.................X..",
"  XXXXXXX..XX                      XXXXXX              X...........X    X...............X    X.........XX  X.................X..",
"         XXX                       X....X              X...........X     X.............X    X...........X   X..........XXXXX.X..",
"                                 XXX....X              XX...........X     X...........XX    X...........X   XX........X    XXX..",
"XXXX                  XXXXXXXXXXXX......X               X...........X      XX.........X    XX...........X    XX......XX       XX",
"...XXX               XX.................X                XX..........X      XX.......XX    X.............X    XXXXXXX        XX.",
".....XXX           XX..................X                  XX.........X       XXXXX..XX     X.............X                   X..",
".......XXX         X..................XX     XXXX           X........X           XXX      X...............X                  X..",
".........XXXX      X..................X   XXX...XXX         X........XX                  XX...............X     XXXXXXX XXXXXX..",
"............X      X.................X   XX........XXXX     XX........X                XXX.................X    X.....XXX.......",
"............XX     X.................X  X.............XX     XX.......X              XXX...................X   XX...............",
".............X     X................XX  X..............XXXX    XXX...XX      XX     X......................XX  X................",
"............XX    XX................X  X...................XXX   XXXX      XXXXXX   XX......................X  X................",
"...........XX     X.................X  X.....................XX           X......X   X.....................X   X................",
"...........X     XX.................X  X.......................X          X......XX   X...................XX   X................",
"..........XX    X...................X X.........................XX        X........X  XXX.................X    X................",
".........XX    X...................XX X..........................XX       X.........X    X................X   XX................",
"........XX    XX...................X  X...........................XX      X.........XX    XX..............X   X.................",
"........X   XXX....................X  X............................X      X..........X     X..............X   XX................",
"........X    XX....................X X.............................X      X...........XX   X..............XX   XXXXXXX..........",
".......X     XX...................X  X............................XX      X.............XX  X..............XX         XXX.......",
".......X     X....................X  X...........................XX       X..............X   XX............XX           X.......",
"......XX    X.....................X  X..........................X         X.............X     XXXXXXXXXXXXXX            X.......",
".....XX    XX....................X  X...........................X         X.............X                               XXX.....",
"....XX     X.....................X  X...........................X         X............X                                  XXX...",
"XXXXX     X......................X  X...........................X         X...........XX                                    XXXX",
"         XX.....................X   X...........................XX        XXX........XX     XXXXXXXXXXXXX                       ",
"         X.....................XX  X.............................X          XXXXXXXXXX     XX...........XXX                     ",
"         X....................XX   X.............................XX                        X..............XX      XXXXX         ",
"         XX.................XXX   X...............................X                        X...............X     XX...XX        ",
"XXX       X.................X   XX...............................XX   XXXXXXXXX           X................XX    X.....X      XX",
"..XX      X.................X   X...............................XX   XX.......XXXX        X.................X    X......X    XX.",
"...X      XX................X   X..............................XX   XX...........XX       X.................X   X.......XX  XX..",
"...X       XXX............XXX   XXX..........................XX    XXX............X      XX.................XXXXX........X  X...",
"...X          XXXXXXXXXXXXX        XX.................XXXXXXX     XX.........XXXXXX    XXX................................X X...",
"...X                                 XXXXXXXXXXXXXXXXX            X........XX        XXX..................................X XX..",
"...X            XXXXXXX     XXXXXXXXXXX                           X........X       XX.....................................XX X..",
"....X            XX...XXXXXXX..........XXXXXXXXXXXXXXXXX        XXX.......XX   XXXXX.......................................X X..",
"....X           X......................................XXX      X........XX    X...........................................X  X.",
"....X           X........................................X      XXXXXXXXX      X..........................................XX  X.",
"...XX            XXX....................................XX                     X..........................................X   X.",
".XX                XX.................................XXX                      XX........................................XX   XX",
".X    XXXXX          XX..........................XXXXX     XXXXXXXXXXX          X......................................XXX     X",
"XX   X.....XX          XXXX...XXXXXXXX........XXX       XXX...........XX        X...................................XXXX        ",
"    XX.......XX            XXX        XXXXXXXXX       XXX...............XX      XX...............................XXXX           ",
"   XX.........XXX                                    XX..................X       X..............................X          XX   ",
"   X.............XX                                 X....................X       X.............................XX         XXXX  ",
"  XX...............XX                               X....................X       X.............................X    XXXXXXX..X  ",
"  X..................XXXX             XXXXX       XX.....................X       XX...........................X    XX........X  ",
"  X......................XXXXXXX    XXX....X   XXX.......................X         X..........................X    X........XX  ",
"  X............................X    X.....XX  XX.........................X          XX........................X   X.........X   ",
" X..............................X   X....XX XX..........................X             XX.....................X    X.......XXX   ",
" X..............................X  XX....X  X...........................X              XX....................X    X.......X     ",
"X...............................X XX....XX XX..........................XX              XX...................X    XX......X     X",
"................................XXX..XXXX  X...........................X     XXXXXXX    X..................XX    X.......X   XXX",
"...............................X XX.XX    X...........................XX   XX......X     X................XX     X.......X   X..",
"..............................X  XXXX    XX...........................X   XX.......X     XXXXXXXXXXXXXXXXX       XX.....XX  XX..",
".............................XX          X.......................XXXXXX   X........XX                              XXXXXX   X...",
"............................XX         XX.....................XXX         X.........XX               XXXXXXXXXXXX          XX...",
"............................X        XXX.....................X            X..........X           XXXXX...........XX        X....",
"...........................XX   XXXXXX......................XX            X..........XX    XXXXXXX.................XX      X....",
"..........................XX  XXX...........................X             XX..........XX   X.........................X     X....",
"..........................X   X..........................XXX               X...........X   X..........................X    X....",
"..........................X   XX.......................XXX                 XX..........X   X..........................X    X....",
".........................X     XXX....................XX    XXXXXX           X.........X   X..........................X    X....",
".........................X       XXX.................X     XX....XXX          X........X   X..........................XX   X....",
".........................X         XX...........XXXXX    XX........XX         X........X   XX..........................X   XX...",
"XX.................XXXXXXX           XX.....XXXXX       XX...........XX       XXXX.....X    XXXX.......................XX   XXXX",
" XXX.............XX                    X...X         XXXX.............XXX        XX...XX       XXXXXXX..................X       ",
"   X..........XXX                      XX.X         XX...................XX        XXXX               XXXX..............X       ",
"   XXX....XXXX       XXXXXXXXX          XXX        XX.....................XXX                            XX............XX       ",
"     XXXXXX    XXXXXXX........XXXXX     XX       XX..........................XXX                           XXX.........X        ",
"             XXX..................XXX            X.............................XXX                           XXX......XX        ",
"         XXXXX......................XX          XX...............................XXXXX          XXXXXXXXXXXXXX..XXXXXXX         ",
"      XXXX...........................XXX        X....................................XXX      XXX............XXXX               ",
"     XX................................X        X......................................XX     X..................XX   XXXX      ",
"    XX.................................X        X.......................................X    X.....................XXXX..XX     "
};
