/* XPM */
static char *d8dd3af964b5484e84b123fe5e796c1bD2ksstwY7GGY1CSw[] = {
/* columns rows colors chars-per-pixel */
"64 64 23 1 ",
"  c None",
". c black",
"X c #6B1D24",
"o c #49372C",
"O c #704A34",
"+ c #7B6A37",
"@ c #533E7B",
"# c #8C2631",
"$ c #B5313E",
"% c #95621E",
"& c #985B36",
"* c #AC5F4F",
"= c #8A7D7B",
"- c #3F9A4D",
"; c #C28127",
": c #B59E5B",
"> c #E3AD48",
", c #DF9F75",
"< c #6D51A2",
"1 c #866CB5",
"2 c #DACFAD",
"3 c #F7DAB3",
"4 c #C7C1C0",
/* pixels */
"                                                                ",
"                                                                ",
"                        OO                                      ",
"                      ....    oo                                ",
"                    ..O&..    oo..                              ",
"               .   .oo&&oo.   oooo.   .                         ",
"              ..  ooOO&&OOoo  .oOO.. ..                         ",
"              ....OO&&&&OOOO...oOOoo...                         ",
"             .O&OoOO&&&&OO&&&&ooOOOOoo.                         ",
"             .O&OOOO&&&&OO&&&&OOoOOOOo.                         ",
"            o.O&OOOO&&&&OO&&&&&&OOOOOoo.                        ",
"           Oo.oO&&OO&&&&&&OO&&&&&&OOOOoo.                       ",
"           Oo.ooO&OOOO&&&&OO&&&&&&ooOOOo.                       ",
"           oOOOoOO&&OO&&&&&&OO&&&&ooOOOo.            ..OO..     ",
"           .o&OOOO&&&O&&&&&&OO&&&&OOOOOo.            .oOO..     ",
"           .oO&&Oo&&&&OO&&&&OOOO&&OOOOoo.            .o&O..     ",
"           .oO&&&&OO&&&&OO&&OOOOOOOOoooo.            ..OO..     ",
"            ..O&&&&&,,2322,,**OOOOo*,:*O.          .o>>o+>;..   ",
"             .OO&&&O,2333322,,::,:&*,:Oo         ..%%>>;;>>%%.  ",
"             .oO&*&O2333222222,,32**:*.          ..;;>>>>>;;%.. ",
"             ...:,*O,,33*$----,,32*+--.          ..;;%%;;%%;%.. ",
"              ..:,**Oo**,,$$$*33,,3,#X.          ..%%;;>>;;%O.. ",
"              ..**,,OoO&,,222233,,3,XX             oo%;>>%%oo   ",
"               .OO*:OoOO::333333222,..             .o%;>>%%..   ",
"                ....ooooOO33333332,*..             .o;;>>;%..   ",
"                ....ooOOoo,,333332.......            .o>>..     ",
"             ...O+O#XXooOO&&++++++%=4=$=4=.          .o&+..     ",
"           .++++++O###XXOOOOXX..XX&=4,$=4=+o.        ..Oo..     ",
"          ..+:::++O###XXXX###XXX###=4=*====o.        ..oo..     ",
"         .ooOO++++OX######$$$$$$$$XXX=4=#$$X.        ......     ",
"         .o&*:::::++OXXXXX####$$###O+++=444=Oo.    ....ooOo..   ",
"       .ooO&&**+++::+OXX####$$$$$$++::::===+O;;o...##;;ooOOoo.  ",
"      oooO&&&&&++O::+++&::******,:+::::+OooOO>>&XXX$$>>oOOOOo.. ",
"     .oOO&&OOO&&o.::++::22::::::22::::+o.ooOO>>*$##$$>>OOOOoo.. ",
"   ..oO&&&&OOOo.....++::22::22::222:...  ..;>;;$$####$*>>OO..   ",
"   .oOO&&OO&Ooo   ..++::22::222222::..     OOOo$$####$$;;>;..   ",
"  o;&OO&&&OOo.     .oO+:22+:222222++.       ...##XXXX##%%;%.    ",
" .o>>&&&&&O.        ..O+22oO22::2,..           ............     ",
" .o;;>>>;..         ..oo22oO22o=24..                 ..oo..     ",
" ..##$$&#..         ..OO::OOOOOOOO..                 ..OO..     ",
"   XX$$##XX...     .XXOO++OOooOO###X.                .o&O..     ",
"   .X$$#&*&%%Oo   +%&&OOOXOOOOO##$*&..               .o&&..     ",
"   .X##$;>>>>;%...;>;;&#####$$$$$*>;..               .o&&..     ",
"     .+>:O&&&&OOo.%;>>;;;;##$$#&;;>>;%.              .o&&..     ",
"     .o+&&&&&O&&o.=1:;>>>>>>>>>>>>;;%=@@.            .o&&..     ",
"     ..oO&&&OoOO@@<1==::>>;;;;;;>:===<<@@o           .o&O..     ",
"       .o&OOo.oo@<1111<<;;%%%%%%;*<<<<@<<@o          ..OO..     ",
"         .....%;=1<<<<11>>;;%%;;>:@@@@@@@*;O.        ..oo..     ",
"          ..oO&&:,,>11<<>>%%;;%;>:<<<@@*;&%%%o.      .o>;..     ",
"         .ooO&&&&;;;,,::>>;;%;;;>>===***%%OO&o.    .o%%>>%%.    ",
"         .ooO&&&Oo%;;>>>>>;;;;;;>;%%%;;%%OOOOo.    .o;;>>;%..   ",
"         .oO&&&&OOoooo%%;;>>>>>>;%...ooooooOOoo..  ..%%>>%%..   ",
"       .ooO&&&OOOOoo......oooooo..    .ooooOOOOo...%%;;>>;;%O.. ",
"       .oOO&&&OOOooo      ..oooooo.   .o%%%%;Oo  ..;;%;;;%%;%.. ",
"      o%O@+&&&OOoo..      ..ooOOoo..  .%%****o.  ..;;;;;;;;;%.. ",
"     .O;*<=&&OOOo.          .oOOoo..  .%;=@<<o.  ..;;>>>>>>;%.. ",
"     .@1=>>>>;%oo.          ..ooOo..  .%;=<@.      .o>>o+>;..   ",
"     .@1=>>;%oo.          ..ooooOo..  .@@<<@.        OOOOOO     ",
"    o@@11:*%O...         .ooooOOOo..  .@@<<@Oo       .o&O..     ",
"   .o1111<@.        oo....ooooOOoo..  .o@<<=&oooo    .o&O..     ",
"   .O>>>;..       ..OOooooooOOOOoo..  ...@<@@&%%%..  ..OO..     ",
" .o;;>>;%..       ..ooOOOOOOOOoo..                              ",
"                                                                ",
"                                                                "
};
